<svg id="achievement-1" width="50" height="50" viewBox="0 0 50 50" fill="none" xmlns="http://www.w3.org/2000/svg">
    <path d="M12.618 36.3636H16.3438C16.617 36.3636 16.8405 36.125 16.8405 35.8333V15.6818C16.8405 15.3901 16.617 15.1515 16.3438 15.1515H12.618C12.3448 15.1515 12.1212 15.3901 12.1212 15.6818V35.8333C12.1212 36.125 12.3448 36.3636 12.618 36.3636ZM24.7889 33.0492C26.1612 33.0492 27.2727 31.8627 27.2727 30.464C27.2727 28.9328 26.1612 27.7462 24.7889 27.7462C23.4165 27.7462 22.305 28.9328 22.305 30.464C22.305 31.8627 23.4165 33.0492 24.7889 33.0492ZM24.7889 23.7689C26.1612 23.7689 27.2727 22.5824 27.2727 21.1837C27.2727 19.6525 26.1612 18.4659 24.7889 18.4659C23.4165 18.4659 22.305 19.6525 22.305 21.1837C22.305 22.5824 23.4165 23.7689 24.7889 23.7689Z" fill="white"/>
    <path d="M48 0H2C0.89375 0 0 0.89375 0 2V48C0 49.1063 0.89375 50 2 50H48C49.1063 50 50 49.1063 50 48V2C50 0.89375 49.1063 0 48 0ZM45.5 45.5H4.5V4.5H45.5V45.5Z" fill="white"/>
    <path d="M33.8118 36.3636H37.4004C37.6635 36.3636 37.8788 36.125 37.8788 35.8333V15.6818C37.8788 15.3901 37.6635 15.1515 37.4004 15.1515H33.8118C33.5487 15.1515 33.3334 15.3901 33.3334 15.6818V35.8333C33.3334 36.125 33.5487 36.3636 33.8118 36.3636Z" fill="white"/>
</svg>
