<svg id="achievement-4" width="50" height="50" viewBox="0 0 50 50" fill="none" xmlns="http://www.w3.org/2000/svg">
    <path d="M22.5 40H27.5V35H22.5V40ZM25 0C21.717 0 18.4661 0.646644 15.4329 1.90301C12.3998 3.15938 9.6438 5.00087 7.32233 7.32233C2.63392 12.0107 0 18.3696 0 25C0 31.6304 2.63392 37.9893 7.32233 42.6777C9.6438 44.9991 12.3998 46.8406 15.4329 48.097C18.4661 49.3534 21.717 50 25 50C31.6304 50 37.9893 47.3661 42.6777 42.6777C47.3661 37.9893 50 31.6304 50 25C50 21.717 49.3534 18.4661 48.097 15.4329C46.8406 12.3998 44.9991 9.6438 42.6777 7.32233C40.3562 5.00087 37.6002 3.15938 34.5671 1.90301C31.5339 0.646644 28.283 0 25 0ZM25 45C13.975 45 5 36.025 5 25C5 13.975 13.975 5 25 5C36.025 5 45 13.975 45 25C45 36.025 36.025 45 25 45ZM25 10C22.3478 10 19.8043 11.0536 17.9289 12.9289C16.0536 14.8043 15 17.3478 15 20H20C20 18.6739 20.5268 17.4021 21.4645 16.4645C22.4021 15.5268 23.6739 15 25 15C26.3261 15 27.5979 15.5268 28.5355 16.4645C29.4732 17.4021 30 18.6739 30 20C30 25 22.5 24.375 22.5 32.5H27.5C27.5 26.875 35 26.25 35 20C35 17.3478 33.9464 14.8043 32.0711 12.9289C30.1957 11.0536 27.6522 10 25 10Z" fill="white"/>
</svg>
