<svg id="achievement-3" width="50" height="50" viewBox="0 0 50 50" fill="none" xmlns="http://www.w3.org/2000/svg">
    <path d="M5 0H45C46.3261 0 47.5979 0.526784 48.5355 1.46447C49.4732 2.40215 50 3.67392 50 5V45C50 46.3261 49.4732 47.5979 48.5355 48.5355C47.5979 49.4732 46.3261 50 45 50H5C3.67392 50 2.40215 49.4732 1.46447 48.5355C0.526784 47.5979 0 46.3261 0 45V5C0 3.67392 0.526784 2.40215 1.46447 1.46447C2.40215 0.526784 3.67392 0 5 0ZM10 10V20H20V25H15V40H20V35H30V40H35V25H30V20H40V10H30V20H20V10H10Z" fill="white"/>
</svg>
