<svg id="achievement-2" width="50" height="33" viewBox="0 0 50 33" fill="none" xmlns="http://www.w3.org/2000/svg">
    <path d="M41.7076 11.3685C39.1518 4.7245 32.6395 0 25.0112 0C17.3828 0 10.8705 4.719 8.31473 11.363C3.53237 12.6005 0 16.8905 0 22C0 28.0775 4.99442 33 11.1551 33H38.8449C45.0056 33 50 28.0775 50 22C50 16.9015 46.4788 12.6115 41.7076 11.3685ZM43.7333 26.8235C43.0929 27.4584 42.3311 27.9617 41.492 28.3044C40.6529 28.6471 39.7532 28.8223 38.8449 28.82H11.1551C9.30803 28.82 7.57254 28.1105 6.26674 26.8235C5.62252 26.1913 5.11181 25.4395 4.76412 24.6116C4.41643 23.7836 4.23866 22.896 4.24107 22C4.24107 20.46 4.74888 19.0135 5.70312 17.8035C6.6376 16.6313 7.93145 15.7883 9.39174 15.4L11.5067 14.8555L12.2824 12.8425C12.7623 11.5885 13.4319 10.417 14.2746 9.3555C15.1064 8.30339 16.0918 7.37852 17.1987 6.611C19.4922 5.0215 22.1931 4.18 25.0112 4.18C27.8292 4.18 30.5301 5.0215 32.8237 6.611C33.9342 7.381 34.9163 8.305 35.7478 9.3555C36.5904 10.417 37.26 11.594 37.74 12.8425L38.51 14.85L40.6194 15.4C43.6496 16.1975 45.7589 18.909 45.7589 22C45.7589 23.8205 45.0391 25.5365 43.7333 26.8235Z" fill="white"/>
</svg>
