<svg id="timer" width="33" height="33" viewBox="0 0 33 33" fill="none" xmlns="http://www.w3.org/2000/svg">
    <path id="timer" d="M22 0H11V3.14435H22V0ZM14.6667 20.4383H18.3333V11.0052H14.6667V20.4383ZM29.3883 10.0305L31.9917 7.798C31.2033 6.99619 30.3417 6.24154 29.4067 5.58123L26.8033 7.81372C23.8834 5.7987 20.2479 4.70032 16.5 4.70081C7.38833 4.70081 0 11.0367 0 18.8504C0 26.6641 7.37 33 16.5 33C25.63 33 33 26.6641 33 18.8504C33 15.5331 31.6433 12.4674 29.3883 10.0305ZM16.5 29.8714C9.405 29.8714 3.66667 24.9505 3.66667 18.8661C3.66667 12.7818 9.405 7.86089 16.5 7.86089C23.595 7.86089 29.3333 12.7818 29.3333 18.8661C29.3333 24.9505 23.595 29.8714 16.5 29.8714Z" fill="white"/>
</svg>
